<svg width="31" height="31" viewBox="0 0 31 31" fill="none" xmlns="http://www.w3.org/2000/svg">
<g clip-path="url(#clip0)">
<path d="M30.7578 15.5C30.7578 16.8175 29.513 17.9534 29.1884 19.1691C28.8518 20.4261 29.3531 22.0294 28.7041 23.1313C28.055 24.2333 26.413 24.6135 25.5072 25.5193C24.6014 26.4251 24.2357 28.0695 23.1192 28.7162C22.0027 29.3628 20.414 28.8518 19.157 29.2005C17.9461 29.5251 16.8054 30.7699 15.4879 30.7699C14.1704 30.7699 13.0345 29.5251 11.8187 29.2005C10.5618 28.8639 8.95852 29.3652 7.85656 28.7162C6.75461 28.0671 6.37437 26.4251 5.46859 25.5193C4.56281 24.6135 2.91836 24.2478 2.27172 23.1313C1.62508 22.0148 2.1482 20.4261 1.81156 19.1691C1.48703 17.9534 0.242188 16.8175 0.242188 15.5C0.242188 14.1825 1.48703 13.0466 1.81156 11.8309C2.1482 10.5739 1.64688 8.96094 2.28383 7.86867C2.92078 6.77641 4.57492 6.38648 5.4807 5.4807C6.38648 4.57492 6.75219 2.93047 7.86867 2.28383C8.98516 1.63719 10.5739 2.1482 11.8309 1.81156C13.0466 1.48703 14.1825 0.242188 15.5 0.242188C16.8175 0.242188 17.9534 1.48703 19.1691 1.81156C20.4261 2.1482 22.0391 1.64688 23.1313 2.28383C24.2236 2.92078 24.6135 4.57492 25.5193 5.4807C26.4251 6.38648 28.0695 6.75219 28.7162 7.86867C29.3628 8.98516 28.8518 10.5739 29.2005 11.8309C29.513 13.0466 30.7578 14.1825 30.7578 15.5Z" fill="url(#paint0_linear)"/>
<path d="M0.726065 13.9379C0.737074 15.382 0.960671 16.8166 1.38966 18.1955C0.408799 16.4373 -0.264482 15.7567 0.726065 13.9379Z" fill="#4DA67F"/>
<path d="M29.1134 19.5469C28.9391 20.7337 29.2902 22.1359 28.7162 23.1313C28.0696 24.2478 26.4252 24.6135 25.5194 25.5193C24.6136 26.4251 24.2479 28.0695 23.1314 28.7162C22.0149 29.3628 20.4262 28.8518 19.1692 29.2005C17.9583 29.5251 16.8176 30.7699 15.5001 30.7699C14.1826 30.7699 13.0467 29.5251 11.8309 29.2005C10.574 28.8639 8.9707 29.3652 7.86875 28.7162C6.7668 28.0671 6.38656 26.4251 5.48078 25.5193C4.575 24.6135 2.93055 24.2478 2.28391 23.1313C1.70992 22.1359 2.06109 20.7337 1.88672 19.5469C3.0156 22.2249 4.90928 24.5105 7.33073 26.1176C9.75219 27.7247 12.5939 28.5818 15.5001 28.5818C18.4063 28.5818 21.248 27.7247 23.6694 26.1176C26.0909 24.5105 27.9846 22.2249 29.1134 19.5469V19.5469Z" fill="#4DA67F"/>
<path d="M29.6094 18.1955C30.0384 16.8166 30.262 15.382 30.273 13.9379C31.2587 15.7422 30.5951 16.4252 29.6094 18.1955Z" fill="#4DA67F"/>
<path d="M1.88672 19.547C1.7027 19.1057 1.54104 18.6555 1.40234 18.198C1.65126 18.6112 1.81588 19.0697 1.88672 19.547V19.547Z" fill="#4DA67F"/>
<path d="M29.6098 18.198C29.4671 18.6557 29.3014 19.1059 29.1133 19.547C29.1878 19.0689 29.3566 18.6103 29.6098 18.198V18.198Z" fill="#4DA67F"/>
<path d="M15.5 26.6406C21.6528 26.6406 26.6406 21.6528 26.6406 15.5C26.6406 9.3472 21.6528 4.35938 15.5 4.35938C9.3472 4.35938 4.35938 9.3472 4.35938 15.5C4.35938 21.6528 9.3472 26.6406 15.5 26.6406Z" fill="url(#paint1_linear)"/>
<path d="M15.5005 4.35938C17.0246 4.35944 18.5326 4.67226 19.931 5.27848C21.3294 5.8847 22.5886 6.77142 23.6306 7.88378C24.6726 8.99614 25.4752 10.3105 25.9889 11.7455C26.5025 13.1805 26.7163 14.7056 26.6169 16.2266C26.4305 13.4051 25.1783 10.7601 23.1141 8.82771C21.0499 6.89531 18.3281 5.82013 15.5005 5.82013C12.6729 5.82013 9.9511 6.89531 7.88686 8.82771C5.82263 10.7601 4.57041 13.4051 4.38407 16.2266C4.28467 14.7056 4.49841 13.1805 5.01207 11.7455C5.52573 10.3105 6.32839 8.99614 7.37037 7.88378C8.41236 6.77142 9.67152 5.8847 11.0699 5.27848C12.4684 4.67226 13.9763 4.35944 15.5005 4.35938V4.35938Z" fill="#C7CDD8"/>
<path d="M13.5623 20.7458L9.00195 16.1854L10.3727 14.8146L13.5623 18.0042L20.627 10.9396L21.9977 12.3104L13.5623 20.7458Z" fill="#4DA67F"/>
<path d="M15.5 4.11719C13.2487 4.11719 11.0479 4.78478 9.17605 6.03554C7.30416 7.2863 5.8452 9.06405 4.98366 11.144C4.12212 13.2239 3.8967 15.5126 4.33591 17.7207C4.77512 19.9287 5.85923 21.9569 7.45114 23.5489C9.04306 25.1408 11.0713 26.2249 13.2793 26.6641C15.4874 27.1033 17.7761 26.8779 19.856 26.0163C21.936 25.1548 23.7137 23.6958 24.9645 21.824C26.2152 19.9521 26.8828 17.7513 26.8828 15.5C26.8783 12.4825 25.6776 9.58981 23.5439 7.45609C21.4102 5.32237 18.5175 4.12167 15.5 4.11719ZM15.5 26.3984C13.3445 26.3984 11.2374 25.7593 9.44516 24.5617C7.65292 23.3642 6.25604 21.6621 5.43116 19.6707C4.60628 17.6792 4.39046 15.4879 4.81098 13.3738C5.2315 11.2597 6.26947 9.31781 7.79365 7.79364C9.31782 6.26947 11.2597 5.23149 13.3738 4.81097C15.4879 4.39045 17.6792 4.60628 19.6707 5.43116C21.6621 6.25603 23.3642 7.65291 24.5617 9.44515C25.7593 11.2374 26.3984 13.3445 26.3984 15.5C26.3984 16.9312 26.1165 18.3484 25.5688 19.6707C25.0212 20.9929 24.2184 22.1943 23.2064 23.2064C22.1944 24.2184 20.9929 25.0211 19.6707 25.5688C18.3484 26.1165 16.9312 26.3984 15.5 26.3984V26.3984Z" fill="#47566A"/>
<path d="M30.1257 13.2041C29.3677 11.9398 29.2829 11.6734 29.3047 10.1137C29.3338 7.88562 29.0238 7.32617 27.0451 6.22422C25.7179 5.48555 25.5193 5.28695 24.7758 3.95492C23.6642 1.9593 23.0805 1.66625 20.8863 1.69531C19.329 1.71469 19.065 1.63476 17.796 0.874296C15.8415 -0.29547 15.161 -0.297892 13.1944 0.874296C11.9375 1.63476 11.671 1.71711 10.1138 1.69531C7.90987 1.66625 7.33589 1.9593 6.22425 3.95492C5.48558 5.28211 5.28698 5.4807 3.95495 6.22422C1.97144 7.32859 1.6687 7.88805 1.69534 10.1137C1.71714 11.6662 1.63722 11.9326 0.874326 13.2041C-0.295439 15.1585 -0.297861 15.8391 0.874326 17.8056C1.63237 19.0602 1.71714 19.3266 1.69534 20.8862C1.66628 23.1144 1.97628 23.6738 3.95495 24.7758C5.28214 25.5023 5.48073 25.713 6.22425 27.0451C7.33831 29.0455 7.91956 29.3337 10.1138 29.3047C11.671 29.2853 11.935 29.3652 13.2041 30.1257C15.1585 31.2955 15.8391 31.2979 17.8057 30.1257C19.0723 29.3677 19.3363 29.2853 20.896 29.3047C23.1168 29.3313 23.6787 29.0334 24.7855 27.0451C25.5121 25.7179 25.7228 25.5193 27.0548 24.7758C29.0383 23.6714 29.341 23.112 29.3144 20.8862C29.2926 19.3338 29.3725 19.0674 30.1354 17.7959C31.2955 15.8415 31.2979 15.1609 30.1257 13.2041ZM29.7092 17.5465C28.9051 18.8882 28.7985 19.2418 28.8203 20.8935C28.847 22.94 28.629 23.3396 26.8102 24.352C25.4007 25.1366 25.1391 25.3982 24.352 26.8102C23.3372 28.6338 22.9376 28.8445 20.8935 28.8203C19.2442 28.7985 18.8931 28.9051 17.5465 29.7091C15.7592 30.782 15.2554 30.7893 13.4535 29.7091C12.2935 29.0141 11.8672 28.8203 10.511 28.8203C9.64878 28.8203 8.67519 28.9075 7.9898 28.5103C6.95081 27.9097 6.58753 26.287 5.65269 25.3619C4.71784 24.4367 3.09519 24.0468 2.49456 23.0078C1.89394 21.9688 2.39042 20.397 2.04651 19.1062C1.71472 17.871 0.484405 16.7109 0.484405 15.5C0.484405 14.2891 1.71956 13.1096 2.04651 11.8938C2.39042 10.6054 1.90362 9.0118 2.49456 7.99219C3.0855 6.97258 4.71784 6.58992 5.643 5.65508C6.56815 4.72023 6.94355 3.09758 7.98011 2.50664C9.01667 1.9157 10.5957 2.4025 11.8842 2.05859C13.129 1.71469 14.2891 0.484374 15.5 0.484374C16.711 0.484374 17.8904 1.71953 19.1062 2.04648C20.3971 2.39039 21.9882 1.90359 23.0078 2.49453C24.0275 3.08547 24.4101 4.71781 25.345 5.64297C26.2798 6.56812 27.9025 6.94351 28.4934 7.98008C29.0843 9.01664 28.5975 10.5933 28.9414 11.8841C29.2853 13.129 30.5157 14.2891 30.5157 15.5C30.5157 16.2023 30.1064 16.8853 29.7092 17.5465Z" fill="#47566A"/>
<path d="M20.8014 10.7652C20.7542 10.7208 20.6918 10.696 20.627 10.696C20.5622 10.696 20.4998 10.7208 20.4526 10.7652L13.5624 17.6555L10.5471 14.6402C10.5 14.5958 10.4376 14.571 10.3728 14.571C10.308 14.571 10.2456 14.5958 10.1984 14.6402C8.73074 16.1079 8.74527 16.0425 8.74527 16.1854C8.74527 16.3283 8.45949 15.9844 13.388 20.9202C13.4106 20.9436 13.4377 20.9623 13.4676 20.975C13.4976 20.9877 13.5298 20.9943 13.5624 20.9943C13.5949 20.9943 13.6272 20.9877 13.6571 20.975C13.6871 20.9623 13.7142 20.9436 13.7368 20.9202C22.7486 11.9084 22.2448 12.463 22.2448 12.3104C22.2448 12.1578 22.2666 12.2305 20.8014 10.7652ZM13.5624 20.3946L9.35074 16.1854L10.3728 15.1634L13.388 18.1786C13.4106 18.202 13.4377 18.2207 13.4676 18.2334C13.4976 18.2462 13.5298 18.2527 13.5624 18.2527C13.5949 18.2527 13.6272 18.2462 13.6571 18.2334C13.6871 18.2207 13.7142 18.202 13.7368 18.1786L20.627 11.2884L21.649 12.3104L13.5624 20.3946Z" fill="#47566A"/>
</g>
<defs>
<linearGradient id="paint0_linear" x1="15.5" y1="30.7578" x2="15.5" y2="0.242188" gradientUnits="userSpaceOnUse">
<stop stop-color="#6AB891"/>
<stop offset="1" stop-color="#85CBA9"/>
</linearGradient>
<linearGradient id="paint1_linear" x1="15.5" y1="26.6406" x2="15.5" y2="4.35938" gradientUnits="userSpaceOnUse">
<stop stop-color="#DDE1E8"/>
<stop offset="1" stop-color="#F3F4F5"/>
</linearGradient>
<clipPath id="clip0">
<rect width="31" height="31" fill="white"/>
</clipPath>
</defs>
</svg>
