<?xml version="1.0" encoding="UTF-8"?>
<svg className="balloons" viewBox="0 0 640 480" xmlns="http://www.w3.org/2000/svg">
 <g fill-rule="evenodd">
  <path d="m206.01 270.15c-0.4904 0.032959-0.92281 0.33325-1.125 0.78125-8.0536 16.982-4.4494 33.265 3.875 47.719s21.345 27.249 32.344 37.812c21.201 20.25 22.189 50.039 16.781 77.219-0.001953 0.041626-0.001953 0.083374 0 0.125-4.0948 34.412-1.2505 74.136 26.625 99.125 11.164 10.307 22.526 23.743 28.719 38.25 6.1932 14.507 7.2814 29.95-2 44.844-0.01059 0.010254-0.020996 0.02063-0.03125 0.03125-2.1389 3.6132-4.7729 6.9105-7.875 9.7188-0.40057 0.30456-0.59537 0.80878-0.5036 1.3036 0.091736 0.49475 0.45441 0.89557 0.93756 1.0362 0.48315 0.14062 1.0043-0.00293 1.3473-0.37109 3.3147-3.0007 6.1395-6.5145 8.4062-10.344 9.7719-15.681 8.609-32.209 2.1875-47.25-6.4214-15.041-18.059-28.711-29.406-39.188-26.87-24.088-29.814-62.744-25.781-96.75 0.003632-0.030579-0.003632-0.063171 0-0.09375 5.4731-27.586 4.5271-58.464-17.562-79.562-10.978-10.544-23.811-23.218-31.875-37.219-8.0636-14.001-11.424-29.166-3.7812-45.281 0.20424-0.42569 0.16792-0.92767-0.095459-1.3196-0.2634-0.39185-0.71449-0.61505-1.1858-0.5867z" stroke-linecap="round" stroke-linejoin="round" stroke-width="2.664"/>
  <g fill="#0f9fe9" stroke-width="1.25">
   <path d="m183.44 266.75c4.2066 3.2293 5.7871 8.6728 6.3229 13.732 0.42108 2.2411 0.08403 4.5009 0.12222 6.7517 0.012146 1.6569 0.9433 3.9213 2.9756 3.4894 1.4317-0.37875 2.6522-1.3348 3.8556-2.1815 3.0625-2.4373 5.2817-6.2024 9.2349-7.3227 3.2787-0.63687 6.8911-0.67349 9.6198-2.8651 1.8596-1.3253 1.3887-4.2905-0.81999-4.9463-2.2778-1.0148-4.8821-1.3597-6.822-3.0555-4.986-3.3969-8.0917-8.832-10.204-14.354-1.1476-2.0228-4.1858-1.465-5.3343 0.27655-2.6887 3.1381-3.5448 7.805-7.3946 9.9141-0.48886 0.25879-1.0135 0.45181-1.5561 0.56125z"/>
   <path d="m213.6 88.11c41.599 59.781 33.625 137.34-17.799 173.12-51.424 35.784-126.92 16.308-168.52-43.474-41.599-59.781-33.625-137.34 17.799-173.12 51.424-35.784 126.92-16.308 168.52 43.474z"/>
  </g>
  <path d="m313.85 284.21c-0.68506 0.024994-1.2394 0.56576-1.2812 1.25-1.3355 15.479-6.221 31.684-8.75 47.906s-2.6991 32.539 5.6562 48c0.019501 0.032135 0.040344 0.063385 0.0625 0.09375 10.912 16.655 28.412 25.851 45.031 35.531 16.619 9.6801 32.343 19.788 40.375 38 0.017517 0.053345 0.038391 0.10553 0.0625 0.15625 13.496 23.355 11.361 50.899 8.8125 77.094-1.8007 20.694 1.5239 43.348 17.094 58.812 8.9805 12.084 16.872 26.197 15.562 41.406-0.060425 0.73352 0.48526 1.3771 1.2188 1.4375 0.73349 0.060425 1.3771-0.48523 1.4375-1.2188 1.3993-16.255-6.9377-30.941-16.062-43.219-0.048889-0.045532-0.1011-0.08728-0.15625-0.125-14.909-14.682-18.205-36.53-16.438-56.844 2.5474-26.183 4.8366-54.347-9.0938-78.562-0.019287-0.043762-0.043121-0.081329-0.0625-0.125-8.4196-18.969-24.761-29.398-41.406-39.094-16.684-9.7179-33.685-18.753-44.125-34.688-7.9289-14.735-7.8287-30.31-5.3438-46.25 2.4898-15.971 7.412-32.224 8.7812-48.094 0.039795-0.38388-0.088837-0.76614-0.3526-1.0479-0.26376-0.28174-0.63672-0.43527-1.0224-0.42084z" stroke-linecap="round" stroke-linejoin="round" stroke-width="2.664"/>
  <g fill="#ff007f" stroke-width="1.25">
   <path d="m307.17 262.08c1.6083 5.0534-0.20355 10.424-2.6535 14.883-0.93445 2.0801-2.5018 3.7425-3.7561 5.6118-0.9364 1.367-1.4654 3.7575 0.44943 4.5638 1.3915 0.50687 2.9394 0.41922 4.4108 0.41162 3.9059-0.25134 7.878-2.0743 11.763-0.73584 3.055 1.3499 6.041 3.3832 9.5326 3.1428 2.2834-0.025665 3.5905-2.7286 2.1521-4.5284-1.29-2.134-3.2307-3.9047-3.8544-6.4046-2.1524-5.6361-1.5972-11.871-0.17716-17.61 0.21338-2.3158-2.599-3.5933-4.5364-2.8198-3.9993 1.0401-7.3677 4.3819-11.732 3.9141-0.5491-0.066803-1.09-0.20801-1.5978-0.42813z"/>
   <path d="m433.97 132.67c0 72.83-50.846 131.94-113.5 131.94-62.649 0-113.5-59.109-113.5-131.94 0-72.83 50.846-131.94 113.5-131.94 62.649 0 113.5 59.109 113.5 131.94z"/>
  </g>
  <path d="m455.23 287.34c-0.39536 0.043396-0.75064 0.26117-0.96875 0.59375-17.851 26.257-28.738 60.817-13.719 91.25 0.029327 0.059448 0.032959 0.12811 0.0625 0.1875 9.21 29.056 12.589 63.692-7.3125 88.812-0.021515 0.020142-0.042358 0.040985-0.0625 0.0625-18.063 26.034-19.756 58.751-11.188 88.281 7.4517 29.836-6.7578 58.159-23.062 82.688-0.01059 0.010254-0.020996 0.02063-0.03125 0.03125l-2.5312 3.9688c-0.39694 0.62134-0.21506 1.4468 0.40625 1.8438 0.62131 0.39697 1.4468 0.21509 1.8438-0.40625l2.5312-3.9688c16.433-24.723 31.146-53.853 23.406-84.844 4.88e-4 -0.020813 4.88e-4 -0.041687 0-0.0625-8.396-28.935-6.6984-60.761 10.812-86 20.713-26.216 17.03-61.937 7.6562-91.406-0.026276-0.06488-0.057617-0.12756-0.09375-0.1875-14.562-29.295-4.058-62.923 13.5-88.75 0.30579-0.43054 0.32846-1.0011 0.057739-1.4545-0.27069-0.45343-0.78366-0.70416-1.3077-0.63925z" stroke-linecap="round" stroke-linejoin="round" stroke-width="2.664"/>
  <g fill="#007fff" stroke-width="1.25">
   <path d="m454.65 269.53c0.022003 5.3031-3.3146 9.8855-6.9868 13.406-1.5142 1.705-3.5074 2.822-5.2637 4.2302-1.3026 1.024-2.523 3.1466-0.93722 4.489 1.176 0.90015 2.6792 1.2799 4.0854 1.713 3.8021 0.92932 8.1377 0.37891 11.444 2.8188 2.5109 2.2025 4.7514 5.0364 8.1548 5.8521 2.1863 0.65897 4.2426-1.5288 3.4089-3.6766-0.5921-2.4223-1.9138-4.6927-1.7606-7.2647-0.36664-6.022 2.0294-11.805 5.1022-16.856 0.89679-2.1458-1.4043-4.2065-3.4844-4.0484-4.1273-0.20468-8.3416 1.9756-12.366 0.22284-0.50394-0.22809-0.97775-0.52475-1.3964-0.88675z"/>
   <path d="m614.37 184.02c-21.8 69.491-88.008 110.67-147.78 91.918-59.777-18.753-90.598-90.371-68.798-159.86 21.8-69.491 88.008-110.67 147.78-91.918 59.777 18.753 90.598 90.371 68.798 159.86z"/>
  </g>
 </g>
</svg>
