<svg width="60" height="60" viewBox="0 0 59 62" fill="none" xmlns="http://www.w3.org/2000/svg">
<path d="M56.9775 31.4748C56.9775 46.76 44.6754 59.151 29.5 59.151C14.3246 59.151 2.02246 46.76 2.02246 31.4748C2.02246 16.1897 14.3246 3.7987 29.5 3.7987C44.6754 3.7987 56.9775 16.1897 56.9775 31.4748Z" fill="#6E2FBC"/>
<path d="M48.2919 31.9611C50.1878 31.9611 51.725 33.1807 51.725 34.6852V39.0192C51.725 40.5237 50.1878 41.7435 48.2919 41.7435C46.396 41.7435 44.8591 40.5237 44.8591 39.0192V34.6852C44.8591 33.1807 46.396 31.9611 48.2919 31.9611Z" fill="#BFBFE3"/>
<path d="M14.0772 34.6852V39.0192C14.0772 40.5237 12.5403 41.7435 10.6445 41.7435C8.74854 41.7435 7.21143 40.5237 7.21143 39.0192V34.6852C7.21143 33.1807 8.74854 31.9611 10.6445 31.9611C12.5403 31.9611 14.0772 33.1807 14.0772 34.6852Z" fill="#BFBFE3"/>
<path d="M28.0589 21.8765C28.5372 21.2668 29.0829 21.4043 29.7362 21.8199C29.2157 22.3368 28.8105 22.8249 28.1262 22.4887C27.9236 22.3893 27.9054 22.0721 28.0589 21.8765ZM30.7008 17.8732C30.6157 17.5959 30.4868 17.3485 30.1609 17.4144C29.7633 17.4946 29.9022 17.7988 29.9652 18.0509C30.1506 18.7933 30.2964 19.5423 30.243 20.3115C30.2107 20.7748 30.207 21.3088 29.485 20.8565C29.3025 20.7421 29.051 20.7302 28.8277 20.6921C28.1577 20.5779 27.6269 20.7911 27.3087 21.4151C26.9995 22.022 27.0652 22.5918 27.5415 23.0948C28.0561 23.6375 28.6394 23.5209 29.2072 23.2271C29.54 23.0547 29.8329 22.8046 30.2602 22.5087C30.772 24.0424 30.3169 25.3464 29.7022 26.6351C29.5581 26.9382 29.0967 27.3041 29.6575 27.5838C30.111 27.8097 30.2086 27.2992 30.3549 27.0338C31.2149 25.4766 31.6538 23.8531 30.8837 22.1252C30.7069 21.7282 30.7877 21.4006 30.8748 21.0279C31.1246 19.9623 31.0203 18.9111 30.7008 17.8732" fill="#3A7189"/>
<path d="M18.7641 25.1761H40.5725C44.4694 25.1761 47.6283 28.3579 47.6283 32.2828V43.2658C47.6283 47.1907 44.4694 50.3725 40.5725 50.3725H18.7641C14.8675 50.3725 11.7085 47.1907 11.7085 43.2658V32.2828C11.7085 28.3579 14.8675 25.1761 18.7641 25.1761Z" fill="#E5BED9"/>
<path d="M23.7751 35.304C23.7751 36.4503 22.8889 37.3797 21.7957 37.3797C20.7024 37.3797 19.8162 36.4503 19.8162 35.304C19.8162 34.1576 20.7024 33.2282 21.7957 33.2282C22.8889 33.2282 23.7751 34.1576 23.7751 35.304Z" fill="#5B3758"/>
<path d="M40.0745 35.6986C40.0745 36.8449 39.1882 37.7743 38.095 37.7743C37.0017 37.7743 36.1155 36.8449 36.1155 35.6986C36.1155 34.5522 37.0017 33.6228 38.095 33.6228C39.1882 33.6228 40.0745 34.5522 40.0745 35.6986Z" fill="#5B3758"/>
<mask id="path-8-inside-1" fill="white">
<path d="M36.0897 42.2341C34.7529 45.7507 25.5291 46.5014 24.5195 42.2914Z"/>
</mask>
<path d="M168.796 92.6787C149.979 142.181 111.698 164.655 93.9459 172.947C73.3101 182.587 52.9954 186.352 35.6942 187.024C19.0422 187.671 -5.62546 185.86 -32.1425 173.817C-60.3077 161.025 -100.208 130.98 -113.537 75.3992L162.576 9.18372C149.752 -44.2926 111.383 -72.852 85.2731 -84.7105C60.8113 -95.8203 38.7224 -97.2494 24.6696 -96.7034C9.96772 -96.1321 -7.72737 -92.9513 -26.2261 -84.31C-41.8411 -77.0158 -78.4684 -55.9542 -96.6168 -8.21046L168.796 92.6787Z" fill="#5B3758" mask="url(#path-8-inside-1)"/>
<path d="M35.6255 10.57C35.3221 9.38012 34.368 8.62665 33.0553 8.4837C32.9413 8.47131 32.8303 8.46527 32.7221 8.46527C31.581 8.46527 30.7692 9.13641 30.3051 10.0537C29.8202 9.0964 28.9925 8.47544 27.7857 8.47544C27.7058 8.47544 27.6242 8.47816 27.541 8.4837C26.3407 8.5634 25.3097 9.28635 24.9848 10.6956C24.4004 13.2307 27.1664 15.822 30.3052 18.3428C33.6432 15.839 36.2474 13.0089 35.6255 10.5697L35.6255 10.57Z" fill="#FF0000"/>
<path d="M35.6255 10.57C35.3221 9.38012 34.368 8.62665 33.0553 8.4837C32.9413 8.47131 32.8303 8.46527 32.7221 8.46527C31.581 8.46527 30.7692 9.13641 30.3051 10.0537C29.8202 9.0964 28.9925 8.47544 27.7857 8.47544C27.7058 8.47544 27.6242 8.47816 27.541 8.4837C26.3407 8.5634 25.3097 9.28635 24.9848 10.6956C24.4004 13.2307 27.1664 15.822 30.3052 18.3428C33.6432 15.839 36.2474 13.0089 35.6255 10.5697L35.6255 10.57Z" fill="#FF0000"/>
</svg>
